<svg width="11" height="12" viewBox="0 0 11 12" fill="none" xmlns="http://www.w3.org/2000/svg">
<path d="M7.45394 1.64215C8.06356 0.673042 9.24468 0.910756 9.93355 1.62858C10.6224 2.34641 10.7245 3.41936 10.0067 4.10823M10.0067 4.10823C10.4471 5.28036 10.4471 6.57249 10.0067 7.74462C8.87892 10.7135 5.66622 10.4788 5.66622 10.4788C5.66622 10.4788 2.45353 10.7135 1.32573 7.74462C0.88645 6.57229 0.886444 5.28055 1.32572 4.10822M10.0067 4.10823C8.87892 1.13938 5.66622 1.37561 5.66622 1.37561C5.66622 1.37561 2.45352 1.13937 1.32572 4.10822M3.8724 1.64423C3.11037 0.825418 2.03743 0.855918 1.35009 1.57375C0.662741 2.29157 0.607896 3.41935 1.32572 4.10822M8.3412 9.7972L9.26144 11M2.99242 9.79792L2.07097 11M5.66621 3.84915V5.13849C5.66636 5.38395 5.72295 5.62611 5.83156 5.84623C5.94017 6.06635 6.09787 6.25857 6.29257 6.40804L7.58348 7.39714" stroke="#EC888D" stroke-width="0.762026" stroke-linecap="round" stroke-linejoin="round"/>
</svg>
