<svg width="74" height="12" viewBox="0 0 74 12" fill="none" xmlns="http://www.w3.org/2000/svg">
<path d="M8.74908 2.62958L7.64766 1.15216C7.52409 0.987556 7.3658 0.854351 7.18505 0.762742C7.00429 0.671134 6.80575 0.623535 6.60454 0.623535C6.40334 0.623535 6.2048 0.671134 6.02404 0.762742C5.84328 0.854351 5.68511 0.987556 5.56153 1.15216L4.46012 2.62958C4.30539 2.83775 4.09686 2.99612 3.85875 3.08628L2.16478 3.71882C1.97139 3.78717 1.79593 3.90109 1.65215 4.05159C1.50838 4.2021 1.40018 4.38509 1.33614 4.58623C1.2721 4.78738 1.2539 5.00115 1.28301 5.2108C1.31212 5.42045 1.38777 5.62024 1.50393 5.7945L2.51726 7.34044C2.65657 7.55802 2.733 7.81239 2.73754 8.0735L2.79476 9.93911C2.799 10.1504 2.8504 10.3578 2.94481 10.5451C3.03922 10.7324 3.17413 10.8945 3.33902 11.0188C3.50391 11.143 3.69422 11.2261 3.89521 11.2614C4.0962 11.2968 4.30236 11.2834 4.49755 11.2224L6.22905 10.7018C6.47142 10.6283 6.72895 10.6283 6.97132 10.7018L8.70283 11.2224C8.89802 11.2834 9.10417 11.2968 9.30517 11.2614C9.50616 11.2261 9.69647 11.143 9.86136 11.0188C10.0262 10.8945 10.1612 10.7324 10.2556 10.5451C10.35 10.3578 10.4014 10.1504 10.4056 9.93911L10.4628 8.0735C10.4688 7.81263 10.5451 7.55867 10.6831 7.34044L11.6964 5.7945C11.8106 5.62033 11.8848 5.42143 11.9134 5.21297C11.942 5.00452 11.9244 4.79208 11.8617 4.59181C11.799 4.39154 11.6929 4.20874 11.5517 4.05745C11.4104 3.90615 11.2376 3.79033 11.0466 3.71882L9.35045 3.08628C9.11234 2.99612 8.9038 2.83775 8.74908 2.62958Z" fill="#FFFDF9" stroke="#FFFDF9" stroke-width="0.819783" stroke-linecap="round" stroke-linejoin="round"/>
<path d="M24.0848 2.62958L22.9834 1.15216C22.8598 0.987556 22.7015 0.854351 22.5207 0.762742C22.34 0.671134 22.1414 0.623535 21.9402 0.623535C21.739 0.623535 21.5405 0.671134 21.3597 0.762742C21.179 0.854351 21.0208 0.987556 20.8972 1.15216L19.7958 2.62958C19.6411 2.83775 19.4326 2.99612 19.1944 3.08628L17.5005 3.71882C17.3071 3.78717 17.1316 3.90109 16.9878 4.05159C16.8441 4.2021 16.7359 4.38509 16.6718 4.58623C16.6078 4.78738 16.5896 5.00115 16.6187 5.2108C16.6478 5.42045 16.7235 5.62024 16.8396 5.7945L17.853 7.34044C17.9923 7.55802 18.0687 7.81239 18.0732 8.0735L18.1305 9.93911C18.1347 10.1504 18.1861 10.3578 18.2805 10.5451C18.3749 10.7324 18.5098 10.8945 18.6747 11.0188C18.8396 11.143 19.0299 11.2261 19.2309 11.2614C19.4319 11.2968 19.6381 11.2834 19.8332 11.2224L21.5647 10.7018C21.8071 10.6283 22.0646 10.6283 22.307 10.7018L24.0385 11.2224C24.2337 11.2834 24.4399 11.2968 24.6409 11.2614C24.8419 11.2261 25.0322 11.143 25.1971 11.0188C25.3619 10.8945 25.4969 10.7324 25.5913 10.5451C25.6857 10.3578 25.7371 10.1504 25.7413 9.93911L25.7985 8.0735C25.8045 7.81263 25.8808 7.55867 26.0188 7.34044L27.0321 5.7945C27.1463 5.62033 27.2205 5.42143 27.2491 5.21297C27.2777 5.00452 27.26 4.79208 27.1973 4.59181C27.1346 4.39154 27.0286 4.20874 26.8874 4.05745C26.7461 3.90615 26.5733 3.79033 26.3823 3.71882L24.6861 3.08628C24.448 2.99612 24.2395 2.83775 24.0848 2.62958Z" fill="#FFFDF9" stroke="#FFFDF9" stroke-width="0.819783" stroke-linecap="round" stroke-linejoin="round"/>
<path d="M39.4205 2.62958L38.319 1.15216C38.1955 0.987556 38.0372 0.854351 37.8564 0.762742C37.6757 0.671134 37.4771 0.623535 37.2759 0.623535C37.0747 0.623535 36.8762 0.671134 36.6954 0.762742C36.5147 0.854351 36.3565 0.987556 36.2329 1.15216L35.1315 2.62958C34.9768 2.83775 34.7682 2.99612 34.5301 3.08628L32.8362 3.71882C32.6428 3.78717 32.4673 3.90109 32.3235 4.05159C32.1798 4.2021 32.0716 4.38509 32.0075 4.58623C31.9435 4.78738 31.9253 5.00115 31.9544 5.2108C31.9835 5.42045 32.0592 5.62024 32.1753 5.7945L33.1886 7.34044C33.328 7.55802 33.4044 7.81239 33.4089 8.0735L33.4662 9.93911C33.4704 10.1504 33.5218 10.3578 33.6162 10.5451C33.7106 10.7324 33.8455 10.8945 34.0104 11.0188C34.1753 11.143 34.3656 11.2261 34.5666 11.2614C34.7676 11.2968 34.9737 11.2834 35.1689 11.2224L36.9004 10.7018C37.1428 10.6283 37.4003 10.6283 37.6427 10.7018L39.3742 11.2224C39.5694 11.2834 39.7756 11.2968 39.9766 11.2614C40.1775 11.2261 40.3679 11.143 40.5327 11.0188C40.6976 10.8945 40.8325 10.7324 40.927 10.5451C41.0214 10.3578 41.0728 10.1504 41.077 9.93911L41.1342 8.0735C41.1402 7.81263 41.2165 7.55867 41.3545 7.34044L42.3678 5.7945C42.482 5.62033 42.5561 5.42143 42.5848 5.21297C42.6134 5.00452 42.5957 4.79208 42.533 4.59181C42.4703 4.39154 42.3643 4.20874 42.2231 4.05745C42.0818 3.90615 41.909 3.79033 41.718 3.71882L40.0218 3.08628C39.7837 2.99612 39.5752 2.83775 39.4205 2.62958Z" fill="#FFFDF9" stroke="#FFFDF9" stroke-width="0.819783" stroke-linecap="round" stroke-linejoin="round"/>
<path d="M54.7562 2.62958L53.6547 1.15216C53.5312 0.987556 53.3729 0.854351 53.1921 0.762742C53.0114 0.671134 52.8128 0.623535 52.6116 0.623535C52.4104 0.623535 52.2119 0.671134 52.0311 0.762742C51.8504 0.854351 51.6922 0.987556 51.5686 1.15216L50.4672 2.62958C50.3125 2.83775 50.1039 2.99612 49.8658 3.08628L48.1719 3.71882C47.9785 3.78717 47.803 3.90109 47.6592 4.05159C47.5155 4.2021 47.4073 4.38509 47.3432 4.58623C47.2792 4.78738 47.261 5.00115 47.2901 5.2108C47.3192 5.42045 47.3949 5.62024 47.511 5.7945L48.5243 7.34044C48.6637 7.55802 48.7401 7.81239 48.7446 8.0735L48.8018 9.93911C48.8061 10.1504 48.8575 10.3578 48.9519 10.5451C49.0463 10.7324 49.1812 10.8945 49.3461 11.0188C49.511 11.143 49.7013 11.2261 49.9023 11.2614C50.1033 11.2968 50.3094 11.2834 50.5046 11.2224L52.2361 10.7018C52.4785 10.6283 52.736 10.6283 52.9784 10.7018L54.7099 11.2224C54.9051 11.2834 55.1113 11.2968 55.3122 11.2614C55.5132 11.2261 55.7036 11.143 55.8684 11.0188C56.0333 10.8945 56.1682 10.7324 56.2626 10.5451C56.3571 10.3578 56.4085 10.1504 56.4127 9.93911L56.4699 8.0735C56.4759 7.81263 56.5522 7.55867 56.6902 7.34044L57.7035 5.7945C57.8177 5.62033 57.8918 5.42143 57.9205 5.21297C57.9491 5.00452 57.9314 4.79208 57.8687 4.59181C57.806 4.39154 57.7 4.20874 57.5587 4.05745C57.4175 3.90615 57.2447 3.79033 57.0536 3.71882L55.3575 3.08628C55.1194 2.99612 54.9109 2.83775 54.7562 2.62958Z" fill="#FFFDF9" stroke="#FFFDF9" stroke-width="0.819783" stroke-linecap="round" stroke-linejoin="round"/>
<path d="M70.0919 2.62958L68.9904 1.15216C68.8669 0.987556 68.7086 0.854351 68.5278 0.762742C68.3471 0.671134 68.1485 0.623535 67.9473 0.623535C67.7461 0.623535 67.5476 0.671134 67.3668 0.762742C67.1861 0.854351 67.0279 0.987556 66.9043 1.15216L65.8029 2.62958C65.6482 2.83775 65.4396 2.99612 65.2015 3.08628L63.5076 3.71882C63.3142 3.78717 63.1387 3.90109 62.9949 4.05159C62.8512 4.2021 62.743 4.38509 62.6789 4.58623C62.6149 4.78738 62.5967 5.00115 62.6258 5.2108C62.6549 5.42045 62.7305 5.62024 62.8467 5.7945L63.86 7.34044C63.9993 7.55802 64.0758 7.81239 64.0803 8.0735L64.1375 9.93911C64.1418 10.1504 64.1932 10.3578 64.2876 10.5451C64.382 10.7324 64.5169 10.8945 64.6818 11.0188C64.8467 11.143 65.037 11.2261 65.238 11.2614C65.439 11.2968 65.6451 11.2834 65.8403 11.2224L67.5718 10.7018C67.8142 10.6283 68.0717 10.6283 68.3141 10.7018L70.0456 11.2224C70.2408 11.2834 70.4469 11.2968 70.6479 11.2614C70.8489 11.2261 71.0392 11.143 71.2041 11.0188C71.369 10.8945 71.5039 10.7324 71.5983 10.5451C71.6927 10.3578 71.7441 10.1504 71.7484 9.93911L71.8056 8.0735C71.8116 7.81263 71.8879 7.55867 72.0259 7.34044L73.0392 5.7945C73.1533 5.62033 73.2275 5.42143 73.2562 5.21297C73.2848 5.00452 73.2671 4.79208 73.2044 4.59181C73.1417 4.39154 73.0357 4.20874 72.8944 4.05745C72.7532 3.90615 72.5804 3.79033 72.3893 3.71882L70.6932 3.08628C70.4551 2.99612 70.2466 2.83775 70.0919 2.62958Z" stroke="#FFFDF9" stroke-width="0.819783" stroke-linecap="round" stroke-linejoin="round"/>
</svg>
