<svg width="12" height="11" viewBox="0 0 12 11" fill="none" xmlns="http://www.w3.org/2000/svg">
<path d="M3.53308 4.69741H4.97957M3.53308 6.21699H8.81506M10.933 9.8378L10.1717 8.2634C10.4664 7.82574 10.6847 7.34129 10.8173 6.83062C11.0755 5.86998 11.0597 4.85626 10.7716 3.90415C9.73015 0.487379 6.17636 0.74775 6.17636 0.74775C6.17636 0.74775 2.57078 0.482811 1.55823 3.98028C1.28267 4.93838 1.28267 5.95475 1.55823 6.91285C2.57078 10.4149 6.17636 10.1469 6.17636 10.1469C7.15049 10.1776 8.11324 9.93049 8.9521 9.43432L10.5326 10.2337C10.5881 10.2572 10.6494 10.2637 10.7087 10.2523C10.7679 10.2409 10.8224 10.2122 10.8653 10.1698C10.9082 10.1274 10.9376 10.0732 10.9496 10.0141C10.9617 9.95498 10.9559 9.89362 10.933 9.8378Z" stroke="#FFFDF9" stroke-width="0.761311" stroke-linecap="round" stroke-linejoin="round"/>
</svg>
