<svg width="143" height="18" viewBox="0 0 143 18" fill="none" xmlns="http://www.w3.org/2000/svg">
<path d="M10.7073 4.24381L9.13057 2.12881C8.95366 1.89318 8.72708 1.70249 8.46831 1.57135C8.20955 1.44021 7.92533 1.37207 7.6373 1.37207C7.34927 1.37207 7.06505 1.44021 6.80629 1.57135C6.54752 1.70249 6.32109 1.89318 6.14418 2.12881L4.56746 4.24381C4.34597 4.54181 4.04744 4.76852 3.70658 4.8976L1.28159 5.80311C1.00473 5.90095 0.753557 6.06403 0.547738 6.27948C0.34192 6.49494 0.187028 6.7569 0.0953546 7.04484C0.0036815 7.33279 -0.0223812 7.63881 0.0192899 7.93893C0.0609609 8.23906 0.16927 8.52507 0.335558 8.77453L1.78618 10.9876C1.98561 11.2991 2.09502 11.6632 2.10152 12.037L2.18344 14.7077C2.18951 15.0102 2.26309 15.3071 2.39823 15.5752C2.53338 15.8434 2.72652 16.0754 2.96256 16.2533C3.1986 16.4312 3.47105 16.5501 3.75877 16.6007C4.0465 16.6513 4.34162 16.6321 4.62105 16.5448L7.09977 15.7996C7.44673 15.6943 7.8154 15.6943 8.16236 15.7996L10.6411 16.5448C10.9205 16.6321 11.2156 16.6513 11.5034 16.6007C11.7911 16.5501 12.0635 16.4312 12.2996 16.2533C12.5356 16.0754 12.7287 15.8434 12.8639 15.5752C12.999 15.3071 13.0726 15.0102 13.0787 14.7077L13.1606 12.037C13.1692 11.6636 13.2784 11.3 13.476 10.9876L14.9266 8.77453C15.09 8.52519 15.1962 8.24046 15.2371 7.94205C15.2781 7.64364 15.2528 7.33952 15.1631 7.05282C15.0733 6.76612 14.9215 6.50445 14.7193 6.28786C14.5171 6.07127 14.2697 5.90547 13.9962 5.80311L11.5682 4.8976C11.2273 4.76852 10.9288 4.54181 10.7073 4.24381Z" fill="#FD5D69" stroke="#FD5D69" stroke-width="1.17355" stroke-linecap="round" stroke-linejoin="round"/>
<path d="M42.3933 4.24381L40.8166 2.12881C40.6397 1.89318 40.4131 1.70249 40.1543 1.57135C39.8956 1.44021 39.6114 1.37207 39.3233 1.37207C39.0353 1.37207 38.7511 1.44021 38.4923 1.57135C38.2336 1.70249 38.0071 1.89318 37.8302 2.12881L36.2535 4.24381C36.032 4.54181 35.7335 4.76852 35.3926 4.8976L32.9676 5.80311C32.6908 5.90095 32.4396 6.06403 32.2338 6.27948C32.028 6.49494 31.8731 6.7569 31.7814 7.04484C31.6897 7.33279 31.6637 7.63881 31.7053 7.93893C31.747 8.23906 31.8553 8.52507 32.0216 8.77453L33.4722 10.9876C33.6716 11.2991 33.7811 11.6632 33.7876 12.037L33.8695 14.7077C33.8755 15.0102 33.9491 15.3071 34.0843 15.5752C34.2194 15.8434 34.4126 16.0754 34.6486 16.2533C34.8846 16.4312 35.1571 16.5501 35.4448 16.6007C35.7325 16.6513 36.0277 16.6321 36.3071 16.5448L38.7858 15.7996C39.1328 15.6943 39.5014 15.6943 39.8484 15.7996L42.3271 16.5448C42.6065 16.6321 42.9017 16.6513 43.1894 16.6007C43.4771 16.5501 43.7496 16.4312 43.9856 16.2533C44.2216 16.0754 44.4148 15.8434 44.5499 15.5752C44.6851 15.3071 44.7587 15.0102 44.7647 14.7077L44.8466 12.037C44.8552 11.6636 44.9644 11.3 45.162 10.9876L46.6126 8.77453C46.776 8.52519 46.8822 8.24046 46.9232 7.94205C46.9642 7.64364 46.9389 7.33952 46.8491 7.05282C46.7594 6.76612 46.6076 6.50445 46.4054 6.28786C46.2031 6.07127 45.9558 5.90547 45.6823 5.80311L43.2542 4.8976C42.9133 4.76852 42.6148 4.54181 42.3933 4.24381Z" fill="#FD5D69" stroke="#FD5D69" stroke-width="1.17355" stroke-linecap="round" stroke-linejoin="round"/>
<path d="M74.0791 4.24381L72.5024 2.12881C72.3255 1.89318 72.0989 1.70249 71.8401 1.57135C71.5814 1.44021 71.2972 1.37207 71.0091 1.37207C70.7211 1.37207 70.4369 1.44021 70.1781 1.57135C69.9193 1.70249 69.6929 1.89318 69.516 2.12881L67.9393 4.24381C67.7178 4.54181 67.4193 4.76852 67.0784 4.8976L64.6534 5.80311C64.3766 5.90095 64.1254 6.06403 63.9196 6.27948C63.7137 6.49494 63.5589 6.7569 63.4672 7.04484C63.3755 7.33279 63.3494 7.63881 63.3911 7.93893C63.4328 8.23906 63.5411 8.52507 63.7074 8.77453L65.158 10.9876C65.3574 11.2991 65.4668 11.6632 65.4733 12.037L65.5553 14.7077C65.5613 15.0102 65.6349 15.3071 65.7701 15.5752C65.9052 15.8434 66.0983 16.0754 66.3344 16.2533C66.5704 16.4312 66.8429 16.5501 67.1306 16.6007C67.4183 16.6513 67.7134 16.6321 67.9929 16.5448L70.4716 15.7996C70.8186 15.6943 71.1872 15.6943 71.5342 15.7996L74.0129 16.5448C74.2923 16.6321 74.5875 16.6513 74.8752 16.6007C75.1629 16.5501 75.4354 16.4312 75.6714 16.2533C75.9074 16.0754 76.1006 15.8434 76.2357 15.5752C76.3709 15.3071 76.4444 15.0102 76.4505 14.7077L76.5324 12.037C76.541 11.6636 76.6502 11.3 76.8478 10.9876L78.2984 8.77453C78.4618 8.52519 78.568 8.24046 78.609 7.94205C78.65 7.64364 78.6247 7.33952 78.5349 7.05282C78.4451 6.76612 78.2934 6.50445 78.0911 6.28786C77.8889 6.07127 77.6416 5.90547 77.3681 5.80311L74.94 4.8976C74.5991 4.76852 74.3006 4.54181 74.0791 4.24381Z" fill="#FD5D69" stroke="#FD5D69" stroke-width="1.17355" stroke-linecap="round" stroke-linejoin="round"/>
<path d="M105.765 4.24381L104.189 2.12881C104.012 1.89318 103.785 1.70249 103.526 1.57135C103.268 1.44021 102.983 1.37207 102.695 1.37207C102.407 1.37207 102.123 1.44021 101.864 1.57135C101.606 1.70249 101.379 1.89318 101.202 2.12881L99.6256 4.24381C99.4041 4.54181 99.1056 4.76852 98.7647 4.8976L96.3397 5.80311C96.0628 5.90095 95.8117 6.06403 95.6058 6.27948C95.4 6.49494 95.2451 6.7569 95.1535 7.04484C95.0618 7.33279 95.0357 7.63881 95.0774 7.93893C95.1191 8.23906 95.2274 8.52507 95.3937 8.77453L96.8443 10.9876C97.0437 11.2991 97.1531 11.6632 97.1596 12.037L97.2415 14.7077C97.2476 15.0102 97.3212 15.3071 97.4563 15.5752C97.5915 15.8434 97.7846 16.0754 98.0207 16.2533C98.2567 16.4312 98.5292 16.5501 98.8169 16.6007C99.1046 16.6513 99.3997 16.6321 99.6792 16.5448L102.158 15.7996C102.505 15.6943 102.874 15.6943 103.22 15.7996L105.699 16.5448C105.979 16.6321 106.274 16.6513 106.561 16.6007C106.849 16.5501 107.122 16.4312 107.358 16.2533C107.594 16.0754 107.787 15.8434 107.922 15.5752C108.057 15.3071 108.131 15.0102 108.137 14.7077L108.219 12.037C108.227 11.6636 108.337 11.3 108.534 10.9876L109.985 8.77453C110.148 8.52519 110.254 8.24046 110.295 7.94205C110.336 7.64364 110.311 7.33952 110.221 7.05282C110.131 6.76612 109.98 6.50445 109.777 6.28786C109.575 6.07127 109.328 5.90547 109.054 5.80311L106.626 4.8976C106.285 4.76852 105.987 4.54181 105.765 4.24381Z" fill="#FD5D69" stroke="#FD5D69" stroke-width="1.17355" stroke-linecap="round" stroke-linejoin="round"/>
<path d="M137.451 4.24381L135.874 2.12881C135.697 1.89318 135.471 1.70249 135.212 1.57135C134.953 1.44021 134.669 1.37207 134.381 1.37207C134.093 1.37207 133.809 1.44021 133.55 1.57135C133.291 1.70249 133.065 1.89318 132.888 2.12881L131.311 4.24381C131.09 4.54181 130.791 4.76852 130.45 4.8976L128.025 5.80311C127.748 5.90095 127.497 6.06403 127.291 6.27948C127.086 6.49494 126.931 6.7569 126.839 7.04484C126.747 7.33279 126.721 7.63881 126.763 7.93893C126.805 8.23906 126.913 8.52507 127.079 8.77453L128.53 10.9876C128.729 11.2991 128.839 11.6632 128.845 12.037L128.927 14.7077C128.933 15.0102 129.007 15.3071 129.142 15.5752C129.277 15.8434 129.47 16.0754 129.706 16.2533C129.942 16.4312 130.215 16.5501 130.502 16.6007C130.79 16.6513 131.085 16.6321 131.365 16.5448L133.843 15.7996C134.19 15.6943 134.559 15.6943 134.906 15.7996L137.385 16.5448C137.664 16.6321 137.959 16.6513 138.247 16.6007C138.535 16.5501 138.807 16.4312 139.043 16.2533C139.279 16.0754 139.472 15.8434 139.608 15.5752C139.743 15.3071 139.816 15.0102 139.822 14.7077L139.904 12.037C139.913 11.6636 140.022 11.3 140.22 10.9876L141.67 8.77453C141.834 8.52519 141.94 8.24046 141.981 7.94205C142.022 7.64364 141.996 7.33952 141.907 7.05282C141.817 6.76612 141.665 6.50445 141.463 6.28786C141.261 6.07127 141.013 5.90547 140.74 5.80311L138.312 4.8976C137.971 4.76852 137.672 4.54181 137.451 4.24381Z" stroke="#FD5D69" stroke-width="1.17355" stroke-linecap="round" stroke-linejoin="round"/>
</svg>
